<mxfile host="app.diagrams.net" modified="2024-03-14T06:29:08.172Z" agent="Mozilla/5.0 (Windows NT 10.0; Win64; x64) AppleWebKit/537.36 (KHTML, like Gecko) Chrome/122.0.0.0 Safari/537.36 Edg/122.0.0.0" etag="l6k3m9MUGIL2ERopWRgn" version="24.0.6" type="github">
  <diagram id="C5RBs43oDa-KdzZeNtuy" name="Page-1">
    <mxGraphModel dx="1426" dy="785" grid="1" gridSize="10" guides="1" tooltips="1" connect="1" arrows="1" fold="1" page="1" pageScale="1" pageWidth="827" pageHeight="1169" math="0" shadow="0">
      <root>
        <mxCell id="WIyWlLk6GJQsqaUBKTNV-0" />
        <mxCell id="WIyWlLk6GJQsqaUBKTNV-1" parent="WIyWlLk6GJQsqaUBKTNV-0" />
        <mxCell id="-4mqT4vHpAoMLQBa698_-11" style="edgeStyle=orthogonalEdgeStyle;rounded=0;orthogonalLoop=1;jettySize=auto;html=1;endArrow=block;endFill=0;" edge="1" parent="WIyWlLk6GJQsqaUBKTNV-1" source="WIyWlLk6GJQsqaUBKTNV-3" target="-4mqT4vHpAoMLQBa698_-2">
          <mxGeometry relative="1" as="geometry" />
        </mxCell>
        <mxCell id="WIyWlLk6GJQsqaUBKTNV-3" value="Identify the problem" style="rounded=1;whiteSpace=wrap;html=1;fontSize=12;glass=0;strokeWidth=1;shadow=0;" parent="WIyWlLk6GJQsqaUBKTNV-1" vertex="1">
          <mxGeometry x="321" y="80" width="120" height="40" as="geometry" />
        </mxCell>
        <mxCell id="WIyWlLk6GJQsqaUBKTNV-5" value="Yes" style="edgeStyle=orthogonalEdgeStyle;rounded=0;html=1;jettySize=auto;orthogonalLoop=1;fontSize=11;endArrow=block;endFill=0;endSize=8;strokeWidth=1;shadow=0;labelBackgroundColor=none;" parent="WIyWlLk6GJQsqaUBKTNV-1" source="WIyWlLk6GJQsqaUBKTNV-6" target="WIyWlLk6GJQsqaUBKTNV-7" edge="1">
          <mxGeometry y="10" relative="1" as="geometry">
            <mxPoint as="offset" />
          </mxGeometry>
        </mxCell>
        <mxCell id="-4mqT4vHpAoMLQBa698_-13" style="edgeStyle=orthogonalEdgeStyle;rounded=0;orthogonalLoop=1;jettySize=auto;html=1;entryX=0.5;entryY=0;entryDx=0;entryDy=0;endArrow=block;endFill=0;" edge="1" parent="WIyWlLk6GJQsqaUBKTNV-1" source="WIyWlLk6GJQsqaUBKTNV-6" target="-4mqT4vHpAoMLQBa698_-5">
          <mxGeometry relative="1" as="geometry" />
        </mxCell>
        <mxCell id="-4mqT4vHpAoMLQBa698_-14" value="No" style="edgeLabel;html=1;align=center;verticalAlign=middle;resizable=0;points=[];" vertex="1" connectable="0" parent="-4mqT4vHpAoMLQBa698_-13">
          <mxGeometry x="0.2" y="1" relative="1" as="geometry">
            <mxPoint x="18" as="offset" />
          </mxGeometry>
        </mxCell>
        <mxCell id="WIyWlLk6GJQsqaUBKTNV-6" value="Problem solved?" style="rhombus;whiteSpace=wrap;html=1;shadow=0;fontFamily=Helvetica;fontSize=12;align=center;strokeWidth=1;spacing=6;spacingTop=-4;" parent="WIyWlLk6GJQsqaUBKTNV-1" vertex="1">
          <mxGeometry x="321" y="210" width="120" height="80" as="geometry" />
        </mxCell>
        <mxCell id="WIyWlLk6GJQsqaUBKTNV-7" value="Product manager will monitor each incidence and record time and outcome" style="rounded=1;whiteSpace=wrap;html=1;fontSize=12;glass=0;strokeWidth=1;shadow=0;" parent="WIyWlLk6GJQsqaUBKTNV-1" vertex="1">
          <mxGeometry x="81" y="215" width="160" height="70" as="geometry" />
        </mxCell>
        <mxCell id="WIyWlLk6GJQsqaUBKTNV-9" value="Yes" style="edgeStyle=orthogonalEdgeStyle;rounded=0;html=1;jettySize=auto;orthogonalLoop=1;fontSize=11;endArrow=block;endFill=0;endSize=8;strokeWidth=1;shadow=0;labelBackgroundColor=none;" parent="WIyWlLk6GJQsqaUBKTNV-1" source="WIyWlLk6GJQsqaUBKTNV-10" target="WIyWlLk6GJQsqaUBKTNV-12" edge="1">
          <mxGeometry x="-0.2" y="19" relative="1" as="geometry">
            <mxPoint as="offset" />
          </mxGeometry>
        </mxCell>
        <mxCell id="WIyWlLk6GJQsqaUBKTNV-12" value="Implement a strategy" style="rounded=1;whiteSpace=wrap;html=1;fontSize=12;glass=0;strokeWidth=1;shadow=0;" parent="WIyWlLk6GJQsqaUBKTNV-1" vertex="1">
          <mxGeometry x="321" y="530" width="120" height="40" as="geometry" />
        </mxCell>
        <mxCell id="-4mqT4vHpAoMLQBa698_-0" value="&lt;font style=&quot;font-size: 15px;&quot;&gt;&lt;b&gt;PROBLEM PROCESS&lt;/b&gt;&lt;/font&gt;" style="text;html=1;align=center;verticalAlign=middle;resizable=0;points=[];autosize=1;strokeColor=none;fillColor=none;" vertex="1" parent="WIyWlLk6GJQsqaUBKTNV-1">
          <mxGeometry x="294" y="40" width="180" height="30" as="geometry" />
        </mxCell>
        <mxCell id="-4mqT4vHpAoMLQBa698_-12" style="edgeStyle=orthogonalEdgeStyle;rounded=0;orthogonalLoop=1;jettySize=auto;html=1;entryX=0.5;entryY=0;entryDx=0;entryDy=0;endArrow=block;endFill=0;" edge="1" parent="WIyWlLk6GJQsqaUBKTNV-1" source="-4mqT4vHpAoMLQBa698_-2" target="WIyWlLk6GJQsqaUBKTNV-6">
          <mxGeometry relative="1" as="geometry" />
        </mxCell>
        <mxCell id="-4mqT4vHpAoMLQBa698_-2" value="Evaluate &amp;amp; Planning" style="rounded=1;whiteSpace=wrap;html=1;" vertex="1" parent="WIyWlLk6GJQsqaUBKTNV-1">
          <mxGeometry x="321" y="145" width="120" height="40" as="geometry" />
        </mxCell>
        <mxCell id="-4mqT4vHpAoMLQBa698_-15" style="edgeStyle=orthogonalEdgeStyle;rounded=0;orthogonalLoop=1;jettySize=auto;html=1;entryX=0.5;entryY=0;entryDx=0;entryDy=0;endArrow=block;endFill=0;" edge="1" parent="WIyWlLk6GJQsqaUBKTNV-1" source="-4mqT4vHpAoMLQBa698_-5" target="WIyWlLk6GJQsqaUBKTNV-10">
          <mxGeometry relative="1" as="geometry" />
        </mxCell>
        <mxCell id="-4mqT4vHpAoMLQBa698_-5" value="Identify factors" style="rounded=1;whiteSpace=wrap;html=1;" vertex="1" parent="WIyWlLk6GJQsqaUBKTNV-1">
          <mxGeometry x="321" y="320" width="120" height="40" as="geometry" />
        </mxCell>
        <mxCell id="-4mqT4vHpAoMLQBa698_-6" value="Have Identified all&amp;nbsp;&lt;div&gt;factor &amp;amp; tried all solutions&amp;nbsp;&lt;/div&gt;&lt;div&gt;but still having&amp;nbsp;&lt;/div&gt;&lt;div&gt;the problem?&amp;nbsp;&lt;/div&gt;" style="rhombus;whiteSpace=wrap;html=1;" vertex="1" parent="WIyWlLk6GJQsqaUBKTNV-1">
          <mxGeometry x="515" y="370" width="160" height="130" as="geometry" />
        </mxCell>
        <mxCell id="-4mqT4vHpAoMLQBa698_-8" style="edgeStyle=orthogonalEdgeStyle;rounded=0;orthogonalLoop=1;jettySize=auto;html=1;exitX=1;exitY=0.5;exitDx=0;exitDy=0;entryX=0;entryY=0.5;entryDx=0;entryDy=0;endArrow=block;endFill=0;" edge="1" parent="WIyWlLk6GJQsqaUBKTNV-1" source="WIyWlLk6GJQsqaUBKTNV-10" target="-4mqT4vHpAoMLQBa698_-6">
          <mxGeometry relative="1" as="geometry" />
        </mxCell>
        <mxCell id="-4mqT4vHpAoMLQBa698_-9" value="No" style="edgeLabel;html=1;align=center;verticalAlign=middle;resizable=0;points=[];" vertex="1" connectable="0" parent="-4mqT4vHpAoMLQBa698_-8">
          <mxGeometry x="0.2647" y="-1" relative="1" as="geometry">
            <mxPoint x="-9" y="-16" as="offset" />
          </mxGeometry>
        </mxCell>
        <mxCell id="WIyWlLk6GJQsqaUBKTNV-10" value="Under control?" style="rhombus;whiteSpace=wrap;html=1;shadow=0;fontFamily=Helvetica;fontSize=12;align=center;strokeWidth=1;spacing=6;spacingTop=-4;" parent="WIyWlLk6GJQsqaUBKTNV-1" vertex="1">
          <mxGeometry x="318" y="390" width="126" height="90" as="geometry" />
        </mxCell>
        <mxCell id="-4mqT4vHpAoMLQBa698_-16" value="Yes" style="edgeStyle=orthogonalEdgeStyle;rounded=0;html=1;jettySize=auto;orthogonalLoop=1;fontSize=11;endArrow=block;endFill=0;endSize=8;strokeWidth=1;shadow=0;labelBackgroundColor=none;" edge="1" parent="WIyWlLk6GJQsqaUBKTNV-1" target="-4mqT4vHpAoMLQBa698_-17">
          <mxGeometry x="-0.3056" y="25" relative="1" as="geometry">
            <mxPoint as="offset" />
            <mxPoint x="595" y="500" as="sourcePoint" />
          </mxGeometry>
        </mxCell>
        <mxCell id="-4mqT4vHpAoMLQBa698_-20" style="edgeStyle=orthogonalEdgeStyle;rounded=0;orthogonalLoop=1;jettySize=auto;html=1;entryX=0.5;entryY=1;entryDx=0;entryDy=0;endArrow=block;endFill=0;" edge="1" parent="WIyWlLk6GJQsqaUBKTNV-1" source="-4mqT4vHpAoMLQBa698_-17" target="-4mqT4vHpAoMLQBa698_-19">
          <mxGeometry relative="1" as="geometry">
            <Array as="points">
              <mxPoint x="595" y="600" />
              <mxPoint x="161" y="600" />
            </Array>
          </mxGeometry>
        </mxCell>
        <mxCell id="-4mqT4vHpAoMLQBa698_-17" value="Escalate" style="rounded=1;whiteSpace=wrap;html=1;fontSize=12;glass=0;strokeWidth=1;shadow=0;" vertex="1" parent="WIyWlLk6GJQsqaUBKTNV-1">
          <mxGeometry x="535" y="530" width="120" height="40" as="geometry" />
        </mxCell>
        <mxCell id="-4mqT4vHpAoMLQBa698_-18" value="" style="edgeStyle=orthogonalEdgeStyle;rounded=0;html=1;jettySize=auto;orthogonalLoop=1;fontSize=11;endArrow=block;endFill=0;endSize=8;strokeWidth=1;shadow=0;labelBackgroundColor=none;" edge="1" parent="WIyWlLk6GJQsqaUBKTNV-1" target="-4mqT4vHpAoMLQBa698_-19">
          <mxGeometry x="-0.0062" y="20" relative="1" as="geometry">
            <mxPoint x="19" y="20" as="offset" />
            <mxPoint x="321" y="549.5" as="sourcePoint" />
          </mxGeometry>
        </mxCell>
        <mxCell id="-4mqT4vHpAoMLQBa698_-22" style="edgeStyle=orthogonalEdgeStyle;rounded=0;orthogonalLoop=1;jettySize=auto;html=1;entryX=0;entryY=0.5;entryDx=0;entryDy=0;" edge="1" parent="WIyWlLk6GJQsqaUBKTNV-1" source="-4mqT4vHpAoMLQBa698_-19" target="WIyWlLk6GJQsqaUBKTNV-10">
          <mxGeometry relative="1" as="geometry">
            <Array as="points">
              <mxPoint x="160" y="435" />
            </Array>
          </mxGeometry>
        </mxCell>
        <mxCell id="-4mqT4vHpAoMLQBa698_-23" value="Review, action &amp;amp; feedback" style="edgeLabel;html=1;align=center;verticalAlign=middle;resizable=0;points=[];" vertex="1" connectable="0" parent="-4mqT4vHpAoMLQBa698_-22">
          <mxGeometry x="-0.0105" y="1" relative="1" as="geometry">
            <mxPoint x="-38" y="26" as="offset" />
          </mxGeometry>
        </mxCell>
        <mxCell id="-4mqT4vHpAoMLQBa698_-19" value="Product manager will monitor each incidence and record time and outcome" style="rounded=1;whiteSpace=wrap;html=1;fontSize=12;glass=0;strokeWidth=1;shadow=0;" vertex="1" parent="WIyWlLk6GJQsqaUBKTNV-1">
          <mxGeometry x="81" y="514.5" width="160" height="70" as="geometry" />
        </mxCell>
      </root>
    </mxGraphModel>
  </diagram>
</mxfile>
